<svg fill="#ffffff" xmlns="http://www.w3.org/2000/svg" viewBox="0 0 90 90">
    <path d="M90.4998 46.6694C90.569 46.6694 68.7379 34.3485 68.6738 33.9862C68.1801 31.3674 67.558 27.043 64.5465 24.8059C61.9546 22.8974 44.4582 15.0217 44.4237 14.9396C41.2022 10.1739 38.3474 5.18023 35.8828 0C33.5424 1.72403 31.6388 3.95217 30.3195 6.51185C29.0002 9.07153 28.3007 11.8941 28.275 14.7608C19.6802 15.9664 11.6134 19.541 5.01727 25.0668C22.1237 21.2305 27.0507 24.7673 27.0507 24.7673C21.4501 25.7437 16.0534 27.6213 11.0798 30.3237C3.78798 34.2471 0.5 38.958 0.5 38.958C0.5 38.958 17.0584 34.3244 29.766 38.8323C23.8401 39.6505 18.3316 42.286 14.0321 46.3601C40.3705 49.5539 53.3595 71.9246 58.8246 90C60.834 57.8499 44.478 45.6402 44.478 45.6402C49.2273 45.9736 55.2009 49.5877 59.0221 54.9654C70.6732 53.6801 77.1603 57.1735 77.106 57.1735C76.9776 57.1735 83.4055 55.2408 87.9376 53.197C87.5476 52.622 85.9085 50.6265 84.9754 49.5104C85.1038 49.5201 88.688 49.3123 90.4998 46.6694ZM54.1198 32.44C54.3765 32.3772 60.0835 30.8069 61.7127 31.4109C63.1938 31.9568 63.2234 36.0831 63.2234 36.0831C63.2234 36.0831 59.8416 36.5469 54.1198 32.44Z" fill="#ffffff"/>
  </svg>