<svg xmlns="http://www.w3.org/2000/svg" viewBox="70 76 242 172"><path d="M 151.9 77.5 L 153.6 77.6 L 153.4 78.3 L 152.0 78.7 L 152.3 79.2 L 150.4 80.0 L 150.1 80.6 L 149.0 81.1 L 146.3 82.8 L 145.9 83.5 L 133.3 94.8 L 127.9 101.4 L 127.6 101.5 L 120.7 112.9 L 120.3 113.0 L 113.0 129.6 L 113.3 130.2 L 112.3 132.6 L 112.0 132.8 L 108.6 149.9 L 107.8 166.3 Q 108.2 181.5 112.2 193.1 L 112.0 193.8 L 112.5 194.1 Q 115.1 203.8 119.4 211.7 L 119.8 211.8 L 128.7 226.2 L 129.4 226.4 L 129.8 227.3 L 130.4 227.7 L 135.5 233.5 L 135.9 233.6 L 136.5 234.5 L 147.3 243.0 L 147.7 243.9 L 149.1 244.3 L 149.0 244.9 L 146.9 244.9 L 144.3 243.9 L 127.6 234.4 L 127.2 233.8 L 119.2 227.7 L 119.1 227.3 L 112.0 220.6 L 110.8 218.9 L 109.9 218.3 L 104.0 210.6 L 103.6 210.5 L 103.5 209.6 L 102.9 209.2 Q 97.5 201.5 94.1 191.9 L 93.8 191.8 L 92.7 189.4 L 92.8 189.0 L 92.5 188.9 L 84.7 174.9 L 84.9 174.3 L 84.1 173.8 L 78.0 159.7 L 77.6 159.5 L 77.5 157.6 L 77.1 157.4 Q 72.8 145.9 70.4 132.5 L 69.3 123.1 L 69.3 108.6 L 69.6 108.0 L 69.6 107.5 L 70.5 103.5 L 71.4 103.6 Q 77.6 112.8 85.6 120.1 Q 89.2 124.6 96.2 125.6 L 97.4 124.9 L 103.0 114.9 L 103.6 114.5 L 110.3 105.6 L 110.7 105.4 L 112.1 103.5 L 113.0 102.8 L 113.1 102.5 L 113.8 102.1 L 115.5 100.1 L 116.1 99.7 L 116.2 99.3 L 128.6 89.8 L 129.0 89.2 L 142.5 81.4 L 143.0 81.7 L 143.6 80.9 L 145.2 80.5 L 145.4 80.1 L 151.9 77.5 Z" fill="#F4F4F5"/><path d="M 233.8 79.6 L 238.7 80.6 L 255.2 90.1 L 255.6 91.0 L 265.9 98.9 L 266.0 99.3 L 270.8 103.9 Q 276.6 109.6 280.6 117.0 L 281.2 117.4 L 288.9 131.3 L 289.3 131.4 L 289.4 131.8 L 289.8 132.0 L 298.5 148.2 L 298.9 148.3 Q 304.3 159.1 308.0 171.5 L 308.0 172.0 Q 311.1 181.3 312.4 192.3 L 312.7 211.5 L 312.4 215.9 L 312.7 216.7 L 312.3 217.9 L 311.6 217.8 L 311.5 217.1 L 310.1 216.2 L 305.3 209.6 L 304.9 209.4 L 298.5 202.3 L 297.9 201.9 L 297.7 201.5 L 296.8 200.9 L 296.7 200.5 Q 293.4 197.2 288.5 195.7 L 288.4 195.3 L 288.0 195.4 L 288.1 195.8 L 286.7 196.2 L 280.3 208.5 L 279.9 208.7 L 274.1 216.9 L 273.4 217.2 L 264.4 226.7 L 256.5 233.1 L 256.4 233.5 L 240.5 242.9 L 230.7 246.2 L 230.5 245.1 L 231.8 244.6 L 231.9 244.2 L 233.6 243.2 L 233.8 242.9 L 234.7 242.7 L 234.8 242.3 L 247.2 231.8 L 247.3 231.4 L 249.0 230.0 Q 267.6 210.4 273.4 178.0 L 273.4 177.5 L 274.5 169.7 L 274.2 169.2 Q 275.6 163.6 274.7 155.6 L 274.2 151.7 L 274.2 151.2 L 272.0 135.7 L 271.6 135.6 Q 269.1 124.1 264.2 114.9 L 263.8 114.8 Q 259.9 105.7 254.1 98.6 L 253.4 98.2 L 245.7 89.5 L 235.7 81.5 L 235.3 80.6 L 233.6 80.2 L 233.8 79.6 Z" fill="#F4F4F5"/><path d="M 191.4 122.2 L 191.8 122.3 Q 195.3 139.2 205.9 149.0 Q 211.2 153.9 218.0 157.2 L 218.2 157.6 L 220.1 158.2 L 220.2 158.6 L 222.2 158.8 L 222.3 159.1 L 231.6 162.1 L 231.4 162.5 Q 215.4 165.9 205.8 175.7 L 205.2 176.6 L 204.8 176.7 Q 199.2 182.1 196.1 189.8 L 195.7 189.9 L 191.7 202.3 L 191.3 202.2 L 190.6 201.3 L 190.2 201.1 L 190.0 200.1 L 190.2 199.6 Q 186.2 183.4 175.3 174.2 L 165.0 167.3 L 164.9 166.9 L 162.9 166.3 L 162.8 165.9 L 161.5 165.6 L 161.0 165.9 L 160.7 165.4 L 151.5 162.7 L 151.6 161.7 L 165.0 157.2 L 165.1 156.8 Q 171.6 153.8 176.4 149.1 L 177.1 148.2 L 177.5 148.1 L 178.1 147.2 L 178.5 147.1 Q 187.0 138.5 190.2 124.7 L 190.2 124.2 L 190.3 123.3 L 190.7 123.1 L 191.4 122.2 Z" fill="#F4F4F5"/></svg>