<svg xmlns="http://www.w3.org/2000/svg" viewBox="70 76 242 172" fill="currentColor"><path d="M 155.5 80 L 156 80.5 L 153.5 83 L 146.5 87 L 131 102.5 L 125 111.5 L 115 133.5 L 114 141.5 L 113 142.5 L 113 146.5 L 112 147.5 L 112 155.5 L 111 156.5 L 111 170.5 L 112 171.5 L 112 179.5 L 113 180.5 L 114 189.5 L 115 190.5 L 115 193.5 L 118 199.5 L 118 201.5 L 124 213.5 L 130 222.5 L 140.5 234 L 152 242.5 Q 151.2 243.7 150.5 242 L 145.5 241 L 128.5 231 L 111 214.5 L 101 199.5 Q 98.5 196 98 190.5 L 92 181.5 L 82 160.5 L 82 158.5 L 78 148.5 L 78 145.5 L 76 140.5 L 76 136.5 L 75 135.5 L 75 129.5 L 74 128.5 L 74 107.5 L 75.5 106 L 79 109.5 Q 83.2 117.8 90.5 123 L 96.5 127 L 101 127 L 102 123.5 L 110 111.5 L 124.5 97 L 137.5 88 L 155.5 80 Z "/><path d="M 231.5 82 L 237.5 85 L 239.5 85 L 248.5 91 L 251.5 92 L 260.5 99 L 270 108.5 L 277 117.5 L 283 129.5 L 290 139.5 L 301 162.5 L 301 165.5 L 305 175.5 L 305 178.5 L 307 183.5 L 307 188.5 L 308 189.5 L 308 216 Q 305.3 217.1 306 214.5 L 299 205.5 L 292.5 199 L 284.5 194 L 274 211.5 L 262.5 224 L 246.5 236 L 232.5 243 L 227.5 244 Q 226 243 228.5 242 L 234.5 239 L 248 226.5 L 260 209.5 L 268 189.5 L 268 186.5 L 270 181.5 L 270 175.5 L 271 174.5 L 271 147.5 L 270 146.5 L 270 141.5 L 269 140.5 L 269 136.5 L 267 132.5 L 267 129.5 L 262 119.5 L 262 117.5 L 252 101.5 L 243.5 92 L 242.5 92 L 236.5 86 L 232.5 84 Q 230 83 231.5 82 Z "/><path d="M 191.5 123 L 193 126.5 L 194 132.5 L 196 135.5 L 196 137.5 Q 198.5 139 199 142.5 L 206.5 151 L 219.5 159 L 221.5 159 L 225.5 161 L 228.5 161 L 231 162.5 L 228.5 164 L 224.5 164 L 214.5 168 L 202 178.5 L 195 189.5 L 191.5 202 L 190 200.5 L 190 196.5 L 185 184.5 L 173.5 172 L 163.5 166 L 161.5 166 L 157.5 164 L 154.5 164 L 152 162.5 L 153.5 161 L 157.5 161 L 167.5 157 L 173.5 153 L 182 144.5 L 188 134.5 L 188 132.5 L 190 128.5 L 190 124.5 L 191.5 123 Z "/></svg>